<?xml version="1.0" encoding="UTF-8"?>
<svg version="1.1" xmlns="http://www.w3.org/2000/svg" width="512" height="512">
<path d="M0 0 C6.17642403 5.15752414 9.96599167 10.96840041 11 19 C11.24780172 27.06481964 9.72646122 33.89345626 4.23828125 39.94140625 C-1.7126034 45.54155113 -7.2144617 48.07021839 -15.375 48.4375 C-22.32542341 48.18755393 -28.08680043 46.61553596 -33.33203125 41.90625 C-39.58113107 35.15046641 -41.87371563 29.17666415 -42 20 C-41.18766085 12.80499609 -38.05086933 6.65239852 -32.75 1.75 C-23.16477325 -5.84507374 -10.46224978 -6.42631568 0 0 Z " fill="#55B38F" transform="translate(408,234)"/>
<path d="M0 0 C6.53820002 4.53475157 10.81269904 9.56480006 12.52734375 17.4140625 C13.60030427 25.2020681 12.82887055 31.84089827 8.1875 38.3125 C3.23814645 44.33779997 -2.13429033 48.41484276 -9.98828125 49.359375 C-18.87746229 49.73541556 -25.25983743 48.04123501 -32.06640625 42.23828125 C-37.38034701 36.76902698 -39.84555055 30.81479378 -40.08984375 23.19921875 C-39.63994634 14.858813 -37.35545957 8.9331093 -31.25 3.1875 C-22.35400622 -3.98827399 -10.2162567 -5.89158362 0 0 Z " fill="#55B38F" transform="translate(133,122)"/>
<path d="M0 0 C5.85371842 4.27218748 10.18859971 9.44536217 11.625 16.61328125 C12.89840067 24.80549224 11.43963176 31.8792472 6.77734375 38.76953125 C2.72402516 43.61921974 -2.52951066 47.40070062 -8.7734375 48.625 C-18.00061686 49.40696435 -24.75620103 48.29946975 -32.0234375 42.4375 C-38.12725537 36.69343564 -40.42158362 30.76295288 -40.859375 22.421875 C-40.6066116 14.19557525 -37.71573152 8.40793307 -31.99609375 2.54296875 C-22.90414642 -5.30263079 -10.36281305 -5.94089608 0 0 Z " fill="#55B38F" transform="translate(133.7734375,344.375)"/>
<path d="M0 0 C6.62343471 5.94666835 10.15407911 11.72737498 10.96484375 20.6015625 C11.07563561 28.16002971 8.59701992 35.11009296 3.46484375 40.66015625 C-2.94943422 46.60687865 -9.49240246 48.64904569 -18.19921875 48.3359375 C-26.50890605 47.3392386 -32.12452878 43.97932872 -37.3671875 37.484375 C-41.70379997 30.88608425 -42.61085584 24.35502754 -41.5625 16.6015625 C-39.8409095 8.63920644 -35.64570879 3.60931729 -29 -1 C-20.04461067 -6.16445765 -8.665099 -5.38525161 0 0 Z " fill="#55B38F" transform="translate(135,234)"/>
<path d="M0 0 C5.8242543 5.27457568 9.37025625 10.76525506 10.3125 18.59765625 C10.66671247 26.46781451 9.26909574 33.35886164 3.90625 39.33203125 C-2.48484476 45.2437939 -8.28100691 47.87219717 -17 48 C-24.72382392 47.18628611 -30.95493999 44.46137923 -36.25 38.75 C-41.11088118 32.61541199 -42.61625716 26.59582399 -42.3359375 18.80078125 C-41.30953304 10.24343246 -37.81117856 5.10583502 -31.31640625 -0.40625 C-22.05581129 -6.7777892 -9.10883796 -6.55760741 0 0 Z " fill="#55B38F" transform="translate(272,354)"/>
<path d="M0 0 C8.01664814 4.1744348 12.20891599 9.68924797 15.0625 18.25 C15.92860557 27.70616903 14.26907558 34.02446942 9.375 42 C2.73896647 48.45668127 -4.74695177 50.61172471 -13.79296875 50.53515625 C-20.30657111 49.94448175 -26.37794636 46.93620791 -30.9375 42.25 C-36.06111704 34.24434838 -37.80248511 27.78853448 -36.9375 18.25 C-34.79852219 10.83561578 -31.11181004 5.33714746 -24.375 1.5 C-16.69479167 -2.59265739 -8.15918685 -3.49679437 0 0 Z " fill="#55B38F" transform="translate(266.9375,231.75)"/>
<path d="M0 0 C5.8273408 5.26679499 9.37084438 10.77014389 10.3125 18.59765625 C10.66671247 26.46781451 9.26909574 33.35886164 3.90625 39.33203125 C-2.86484154 45.59529092 -8.81571774 47.84921328 -18 48 C-26.27722406 47.38535465 -31.65021598 43.44031872 -37.3125 37.625 C-41.74410953 30.73138517 -42.97862843 24.15903003 -42 16 C-40.19352259 7.84676528 -35.81804699 2.69100029 -29 -2 C-19.48600076 -6.33239602 -8.65131263 -6.11406412 0 0 Z " fill="#55B38F" transform="translate(272,115)"/>
<path d="M0 0 C6.21234531 4.15796577 9.91647823 9.06838253 11.53125 16.41796875 C12.59397485 24.20725884 11.82985073 30.83953158 7.1875 37.3125 C2.23814645 43.33779997 -3.13429033 47.41484276 -10.98828125 48.359375 C-19.87746229 48.73541556 -26.25983743 47.04123501 -33.06640625 41.23828125 C-38.38034701 35.76902698 -40.84555055 29.81479378 -41.08984375 22.19921875 C-40.63994634 13.858813 -38.35545957 7.9331093 -32.25 2.1875 C-22.56500242 -5.62470799 -10.72669087 -6.52929009 0 0 Z " fill="#55B38F" transform="translate(134,12)"/>
<path d="M0 0 C5.85371842 4.27218748 10.18859971 9.44536217 11.625 16.61328125 C12.89788506 24.80217514 11.44461124 31.88641936 6.7734375 38.76953125 C1.7094288 44.84378411 -4.24732443 48.03554794 -12.1171875 48.875 C-20.17828346 49.27307881 -26.26724379 46.79551467 -32.5859375 41.875 C-38.40783412 36.4583398 -40.44748698 30.26942561 -40.859375 22.421875 C-40.6066116 14.19557525 -37.71573152 8.40793307 -31.99609375 2.54296875 C-22.90414642 -5.30263079 -10.36281305 -5.94089608 0 0 Z " fill="#55B38F" transform="translate(133.7734375,455.375)"/>
<path d="M0 0 C5.74045092 4.36612565 9.52606592 10.59515878 11.12109375 17.61328125 C12.05571623 24.88256724 10.74538568 31.69767107 6.64453125 37.81640625 C2.15854709 43.34707165 -2.64799559 46.37496594 -9.44140625 48.36328125 C-18.39427964 49.28152467 -26.08752585 47.6655816 -33.30859375 42.140625 C-38.88761881 36.71425983 -41.03307531 30.63816574 -41.19140625 22.98828125 C-41.09632759 15.28690956 -40.06954123 10.10663302 -34.8203125 4.359375 C-25.21027966 -4.69966102 -11.73968184 -6.84332849 0 0 Z " fill="#55B38F" transform="translate(202.87890625,404.38671875)"/>
<path d="M0 0 C4.596825 3.51710564 7.4389019 8.37920571 9.25 13.8125 C10.07384933 22.8630734 9.72680241 30.32155867 4.25 37.8125 C-0.52480142 43.15437998 -5.86164851 46.43665696 -13.0234375 47.12890625 C-20.26148943 47.36811692 -25.75453458 47.00932579 -31.75 42.8125 C-32.636875 42.255625 -33.52375 41.69875 -34.4375 41.125 C-39.7377033 35.8247967 -42.83622227 29.11783106 -43 21.625 C-42.85322989 13.48593002 -40.29176987 7.46629973 -34.71875 1.5390625 C-24.57264167 -7.35891345 -11.05682708 -7.09939439 0 0 Z " fill="#55B38F" transform="translate(340.75,303.1875)"/>
<path d="M0 0 C0.52851563 0.36996094 1.05703125 0.73992187 1.6015625 1.12109375 C2.4884375 1.67796875 3.3753125 2.23484375 4.2890625 2.80859375 C9.5892658 8.10879705 12.68778477 14.81576269 12.8515625 22.30859375 C12.70479239 30.44766373 10.14333237 36.46729402 4.5703125 42.39453125 C-1.08612846 47.35514019 -7.71562419 49.4609317 -15.1875 49.3359375 C-21.99461344 48.67446888 -28.48184399 45.90315361 -33.3984375 41.12109375 C-39.40678965 33.16703171 -40.31850164 26.00913936 -39.3984375 16.12109375 C-36.86589885 7.59223042 -31.70749784 2.75929396 -24.3359375 -1.75390625 C-16.75996612 -4.61632078 -6.91699241 -4.25321448 0 0 Z " fill="#55B38F" transform="translate(201.3984375,292.87890625)"/>
<path d="M0 0 C6.33838938 5.15067634 10.06330744 11.37514387 11.03125 19.53125 C11.29380474 27.02096954 8.97205477 33.02133497 5.04296875 39.3359375 C-2.03769291 46.21991411 -8.83410556 47.95356529 -18.5546875 47.86328125 C-25.57469001 47.21008316 -30.88521571 44.30339296 -35.64453125 39.1484375 C-41.54383064 31.31055814 -42.22845763 24.24382479 -41.20703125 14.5234375 C-40.28582449 11.4905414 -39.0179316 9.110438 -37.20703125 6.5234375 C-36.37171875 5.193125 -36.37171875 5.193125 -35.51953125 3.8359375 C-25.98600332 -5.69759043 -11.29649735 -7.55765664 0 0 Z " fill="#55B38F" transform="translate(203.20703125,174.4765625)"/>
<path d="M0 0 C5.83280315 3.40007409 10.60348491 8.31131935 13.02734375 14.7265625 C14.65151836 22.32394123 14.7716899 30.58583303 10.62109375 37.3359375 C10.25113281 37.86445313 9.88117188 38.39296875 9.5 38.9375 C8.943125 39.824375 8.38625 40.71125 7.8125 41.625 C2.13839622 47.29910378 -4.36382484 49.66175499 -12.25 50.1875 C-20.10868227 50.02500845 -26.07800699 47.26131614 -31.7734375 41.90625 C-36.93247193 36.02355011 -38.87414648 29.1493241 -38.78515625 21.4453125 C-38.05265732 15.00333562 -35.15296017 8.46121127 -30.5 3.9375 C-21.3478105 -2.5785619 -10.66030238 -4.94884662 0 0 Z " fill="#55B38F" transform="translate(336.5,164.0625)"/>
<path d="M0 0 C8.05466141 0.52817452 14.22685181 2.66088193 20.12109375 8.28125 C25.21949433 14.21564698 27.19547236 21.02790996 27.09375 28.74609375 C26.29797047 35.83074202 22.99326396 42.40711195 17.8125 47.25 C10.30953913 52.63784048 2.85022348 53.36119551 -6.1875 52.25 C-14.82419715 50.19910289 -19.60097235 44.42181878 -24.125 37.125 C-26.40320962 30.93111759 -26.27867587 23.01631671 -24.4609375 16.7421875 C-21.07000606 9.4916593 -15.14229939 4.90518087 -8.1875 1.25 C-5.37687733 0.35882696 -2.94355925 0.23086739 0 0 Z " fill="#55B38F" transform="translate(187.1875,58.75)"/>
</svg>
