<svg xmlns="http://www.w3.org/2000/svg" viewBox="0 0 40 40" id="ford"  width="288" height="288">
  <path fill="#4f4c4d" d="M34.91 19.57a.22.22 0 0 1 0 .08v-.08"></path>
  <path d="M20 14.38c-8.33 0-15 2.5-15 5.62s6.73 5.62 15 5.62S35 23.1 35 20s-6.73-5.62-15-5.62"></path>
  <path fill="#fff" d="M5.84 20c0 2.72 6.34 4.93 14.15 4.93 7.82 0 14.15-2.21 14.15-4.93 0-2.72-6.32-4.92-14.14-4.92S5.84 17.28 5.84 20m.5 0c0-2.49 6.11-4.5 13.66-4.5 7.54 0 13.66 2 13.66 4.5 0 2.49-6.11 4.5-13.66 4.5-7.54 0-13.66-2-13.66-4.5"></path>
  <path fill="#fff" d="M28 18.33a.1.1 0 0 0-.11.06c-.09.17-1.15 1.75-1.34 2.06 0 .05-.07 0-.08 0a.66.66 0 0 0-.43-.49 1.13 1.13 0 0 0-.57-.07 2 2 0 0 0-.93.44c-.41.31-.77.72-1.22 1-.25.16-.59.31-.82.09a.7.7 0 0 1 .13-.95h.07a.42.42 0 0 0 .12.4.47.47 0 0 0 .51.06.65.65 0 0 0 .35-.51.59.59 0 0 0-.53-.66 1 1 0 0 0-.76.28 1.62 1.62 0 0 0-.3.33s-.07 0-.06 0c0-.43-.17-.67-.52-.68a1.26 1.26 0 0 0-.8.33 8.08 8.08 0 0 0-.71.72s-.06 0-.06 0a1.51 1.51 0 0 0-.21-.76.19.19 0 0 0-.23-.06 1.51 1.51 0 0 0-.27.16.15.15 0 0 0 0 .17 2 2 0 0 1-.07 1.32 1.47 1.47 0 0 1-.83.83.54.54 0 0 1-.64-.17 1.11 1.11 0 0 1 .15-1.23 2.38 2.38 0 0 1 1.08-.76s.06 0 0-.09c0-.07-.06-.16-.07-.2 0-.1-.14-.11-.27-.1a2.26 2.26 0 0 0-.82.27 2.76 2.76 0 0 0-1.17 1.45 1.39 1.39 0 0 1-.21.39 3.23 3.23 0 0 1-.49.47.09.09 0 0 0 0 .1 1.26 1.26 0 0 0 .19.25s.09 0 .11 0a2.56 2.56 0 0 0 .48-.43s.07 0 .09 0a1.06 1.06 0 0 0 .68.73 1.7 1.7 0 0 0 1.76-.62 7.2 7.2 0 0 0 .54-.7 6.62 6.62 0 0 1 1.07-1.17c.17-.13.38-.23.48-.17.08 0 .11.18 0 .42-.48.88-1.19 1.92-1.32 2.17s0 .08 0 .08h.73a.07.07 0 0 0 .07-.05l1.09-1.7a1 1 0 0 0 .12.43.67.67 0 0 0 .56.32 1 1 0 0 0 .46-.1 1.67 1.67 0 0 0 .38-.2h.06a1.08 1.08 0 0 0 .56 1.3 1.39 1.39 0 0 0 1.5-.45s.07 0 .07 0a.71.71 0 0 0 .17.4c.29.29.88.18 1.46-.28a7.18 7.18 0 0 0 1.13-1.14.06.06 0 0 0 0-.07 1.54 1.54 0 0 0-.19-.17s-.06 0-.08 0a9.42 9.42 0 0 1-1.17 1.07c-.16.11-.42.2-.53.05a.27.27 0 0 1 0-.25c.14-.35 2.34-3.69 2.45-3.89s0-.06 0-.06H28m-3.48 4.11a.4.4 0 0 1-.16-.34 1.85 1.85 0 0 1 .47-1.07c.36-.44.76-.67 1-.55.27.13.18.44.06.69v.05s0 .05.07.06a2.67 2.67 0 0 1-.3.49 1.85 1.85 0 0 1-.38.41 1.06 1.06 0 0 1-.6.29.37.37 0 0 1-.18 0"></path>
  <path fill="#fff" d="M16.33 16.3h-.63c-1.35.11-2.63.87-2.64 2a1 1 0 0 0 1.06 1 2.08 2.08 0 0 0 1.71-1.3c.12-.29-.11-.41-.21-.24a2 2 0 0 1-.76.68c-.36.17-.74.13-.85-.16-.16-.41.18-1 1-1.31a6.34 6.34 0 0 1 3.4.07s.08 0 0 .06a3.54 3.54 0 0 0-.71.46 6 6 0 0 0-.73.71c-.22.27-.38.51-.59.78a.08.08 0 0 1-.06 0 3.38 3.38 0 0 0-1.46.46.21.21 0 0 0-.08.27.17.17 0 0 0 .25 0 1.53 1.53 0 0 1 .91-.32 13.22 13.22 0 0 1-1 1.28 6.69 6.69 0 0 1-.59.6c-.85.79-1.77.78-2.1.28a.83.83 0 0 1 0-.87 1.71 1.71 0 0 1 .75-.69.18.18 0 0 0 0-.29.37.37 0 0 0-.33-.07 1.81 1.81 0 0 0-1 .65 1.82 1.82 0 0 0-.37 1.27 1.53 1.53 0 0 0 1.6 1.48 2.66 2.66 0 0 0 2-1 14.93 14.93 0 0 0 1.9-2.71s0-.05.12-.06c.37-.05.91-.1 1.26-.12h.12a1.23 1.23 0 0 0 .34.27.21.21 0 0 0 .12 0 .17.17 0 0 0 .12-.06.11.11 0 0 0 0-.13s-.26-.17-.27-.22a.81.81 0 0 0 .48-.39.51.51 0 0 0-.07-.65.5.5 0 0 0-.66.08.8.8 0 0 0-.25.7s0 .06-.05.06c-.32 0-.63 0-1 .05a5.7 5.7 0 0 1 1.65-1.67s0-.09 0-.15a16.2 16.2 0 0 0 3.56.73 2.88 2.88 0 0 0 1.46-.34c.41-.22.58-.43.59-.64a.19.19 0 0 0-.24-.21 10.31 10.31 0 0 1-3.67.13 33.49 33.49 0 0 0-4.17-.53m2.14 2.49a.47.47 0 0 1 .17-.43c.07-.06.17-.08.22 0 .07.06 0 .2 0 .29a.52.52 0 0 1-.31.22s0 0 0-.05"></path>
</svg>
