<svg xmlns="http://www.w3.org/2000/svg" viewBox="0 0 40 40" id="sony"  width="288" height="288">
  <path d="M10.22 19.21a2.91 2.91 0 0 0-.59-.21A16.55 16.55 0 0 0 8 18.75a9.51 9.51 0 0 1-1.47-.2.34.34 0 0 1-.27-.32.47.47 0 0 1 .25-.39 2.94 2.94 0 0 1 1.35-.27 3.86 3.86 0 0 1 1.56.31 1.86 1.86 0 0 1 .38.22 1.13 1.13 0 0 1 .36.61h.59v-1.6h-.66v.18c0 .06-.06.14-.18.08a4.9 4.9 0 0 0-2.16-.49 4.54 4.54 0 0 0-1.8.35A1.36 1.36 0 0 0 5 18.46a1.25 1.25 0 0 0 .34.87 2 2 0 0 0 1 .52c.29.06.89.16 1.5.22s1.19.12 1.43.18.51.12.51.48a.53.53 0 0 1-.4.49 3 3 0 0 1-1.19.21 4.85 4.85 0 0 1-1.42-.25 1.61 1.61 0 0 1-.77-.55.91.91 0 0 1-.17-.52h-.68V22h.73v-.25a.11.11 0 0 1 .12-.13 5.71 5.71 0 0 0 1.11.38 4.61 4.61 0 0 0 1.11.14 4.88 4.88 0 0 0 1.5-.21 2.59 2.59 0 0 0 .88-.44 1.21 1.21 0 0 0 .48-1 1.36 1.36 0 0 0-.39-1 1.51 1.51 0 0 0-.47-.28zm8.24-1.41a3.92 3.92 0 0 0-2.77-.93 4.34 4.34 0 0 0-2.77.93 2.29 2.29 0 0 0-.75 1.71 2.24 2.24 0 0 0 .75 1.71 4.12 4.12 0 0 0 2.77.93 4.08 4.08 0 0 0 2.77-.93 2.36 2.36 0 0 0 .75-1.71 2.31 2.31 0 0 0-.75-1.71zm-1.29 3.09a2.09 2.09 0 0 1-1.48.57 2.16 2.16 0 0 1-1.49-.57 1.94 1.94 0 0 1-.54-1.38 1.9 1.9 0 0 1 .54-1.38 2.11 2.11 0 0 1 1.49-.57 2.09 2.09 0 0 1 1.48.57 1.91 1.91 0 0 1 .55 1.38 1.87 1.87 0 0 1-.55 1.38zm7.32-3.14h.61c.28 0 .32.11.33.37v2l-3.23-2.91h-2.3v.58h.51c.37 0 .4.21.4.39v2.75c0 .16 0 .39-.23.39H20v.58h2.71v-.58H22c-.26 0-.27-.12-.28-.38v-2.39l3.72 3.31h.94v-3.74c0-.28 0-.37.31-.37h.59v-.58h-2.79zm7.86-.58v.58h.4a.12.12 0 0 1 .1.19l-1.13 1.31-1.1-1.32a.1.1 0 0 1 .07-.18h.39v-.58h-3.26v.58h.57a.7.7 0 0 1 .51.26c.08.09 1.72 1.95 1.76 2s0 .06 0 .08V21a.49.49 0 0 1 0 .12.2.2 0 0 1-.13.12h-.73v.58H33v-.58h-.76a.2.2 0 0 1-.13-.12.53.53 0 0 1 0-.12v-.9a.16.16 0 0 1 0-.09l1.78-2a.51.51 0 0 1 .47-.23H35v-.58z"></path>
</svg>
